<mxfile host="app.diagrams.net" agent="Mozilla/5.0 (Windows NT 10.0; Win64; x64) AppleWebKit/537.36 (KHTML, like Gecko) Chrome/130.0.0.0 Safari/537.36" version="24.8.3">
  <diagram name="PÃ¡gina-1" id="n1yxxpef1vCMcUwRjSGr">
    <mxGraphModel dx="2577" dy="942" grid="1" gridSize="10" guides="1" tooltips="1" connect="1" arrows="1" fold="1" page="1" pageScale="1" pageWidth="827" pageHeight="1169" math="0" shadow="0">
      <root>
        <mxCell id="0" />
        <mxCell id="1" parent="0" />
        <mxCell id="rKoa6wGexHbkofGqB5mT-68" style="edgeStyle=none;rounded=0;orthogonalLoop=1;jettySize=auto;html=1;exitX=1;exitY=0.5;exitDx=0;exitDy=0;entryX=0;entryY=0.5;entryDx=0;entryDy=0;strokeWidth=1;" edge="1" parent="1" source="rKoa6wGexHbkofGqB5mT-28" target="rKoa6wGexHbkofGqB5mT-40">
          <mxGeometry relative="1" as="geometry" />
        </mxCell>
        <mxCell id="rKoa6wGexHbkofGqB5mT-69" style="edgeStyle=none;rounded=0;orthogonalLoop=1;jettySize=auto;html=1;exitX=1;exitY=0.5;exitDx=0;exitDy=0;entryX=0;entryY=0.5;entryDx=0;entryDy=0;strokeWidth=1;" edge="1" parent="1" source="rKoa6wGexHbkofGqB5mT-28" target="rKoa6wGexHbkofGqB5mT-41">
          <mxGeometry relative="1" as="geometry" />
        </mxCell>
        <mxCell id="rKoa6wGexHbkofGqB5mT-70" style="edgeStyle=none;rounded=0;orthogonalLoop=1;jettySize=auto;html=1;exitX=1;exitY=0.5;exitDx=0;exitDy=0;entryX=0;entryY=0.5;entryDx=0;entryDy=0;strokeWidth=1;" edge="1" parent="1" source="rKoa6wGexHbkofGqB5mT-28" target="rKoa6wGexHbkofGqB5mT-42">
          <mxGeometry relative="1" as="geometry">
            <mxPoint x="110" y="640" as="targetPoint" />
          </mxGeometry>
        </mxCell>
        <mxCell id="rKoa6wGexHbkofGqB5mT-28" value="&lt;font style=&quot;font-size: 18px;&quot;&gt;ADI&lt;/font&gt;&lt;div&gt;(touchscreen controllers)&lt;/div&gt;" style="rounded=0;whiteSpace=wrap;html=1;fillColor=#fff2cc;strokeColor=#d6b656;" vertex="1" parent="1">
          <mxGeometry x="-190" y="150" width="140" height="80" as="geometry" />
        </mxCell>
        <mxCell id="rKoa6wGexHbkofGqB5mT-65" style="edgeStyle=none;rounded=0;orthogonalLoop=1;jettySize=auto;html=1;exitX=1;exitY=0.5;exitDx=0;exitDy=0;entryX=0;entryY=0.5;entryDx=0;entryDy=0;strokeWidth=1;" edge="1" parent="1" source="rKoa6wGexHbkofGqB5mT-29" target="rKoa6wGexHbkofGqB5mT-40">
          <mxGeometry relative="1" as="geometry" />
        </mxCell>
        <mxCell id="rKoa6wGexHbkofGqB5mT-66" style="edgeStyle=none;rounded=0;orthogonalLoop=1;jettySize=auto;html=1;exitX=1;exitY=0.5;exitDx=0;exitDy=0;entryX=0;entryY=0.5;entryDx=0;entryDy=0;strokeWidth=1;" edge="1" parent="1" source="rKoa6wGexHbkofGqB5mT-29" target="rKoa6wGexHbkofGqB5mT-41">
          <mxGeometry relative="1" as="geometry" />
        </mxCell>
        <mxCell id="rKoa6wGexHbkofGqB5mT-67" style="edgeStyle=none;rounded=0;orthogonalLoop=1;jettySize=auto;html=1;exitX=1;exitY=0.5;exitDx=0;exitDy=0;entryX=0;entryY=0.5;entryDx=0;entryDy=0;strokeWidth=1;" edge="1" parent="1" source="rKoa6wGexHbkofGqB5mT-29" target="rKoa6wGexHbkofGqB5mT-42">
          <mxGeometry relative="1" as="geometry" />
        </mxCell>
        <mxCell id="rKoa6wGexHbkofGqB5mT-29" value="&lt;div&gt;&lt;font style=&quot;font-size: 18px;&quot;&gt;JBL&lt;/font&gt;&lt;/div&gt;&lt;div&gt;(casings)&lt;/div&gt;" style="rounded=0;whiteSpace=wrap;html=1;fillColor=#fff2cc;strokeColor=#d6b656;" vertex="1" parent="1">
          <mxGeometry x="-190" y="60" width="140" height="80" as="geometry" />
        </mxCell>
        <mxCell id="rKoa6wGexHbkofGqB5mT-71" style="edgeStyle=none;rounded=0;orthogonalLoop=1;jettySize=auto;html=1;exitX=1;exitY=0.5;exitDx=0;exitDy=0;entryX=0;entryY=0.5;entryDx=0;entryDy=0;strokeWidth=1;" edge="1" parent="1" source="rKoa6wGexHbkofGqB5mT-32" target="rKoa6wGexHbkofGqB5mT-40">
          <mxGeometry relative="1" as="geometry" />
        </mxCell>
        <mxCell id="rKoa6wGexHbkofGqB5mT-72" style="edgeStyle=none;rounded=0;orthogonalLoop=1;jettySize=auto;html=1;exitX=1;exitY=0.5;exitDx=0;exitDy=0;entryX=0;entryY=0.5;entryDx=0;entryDy=0;strokeWidth=1;" edge="1" parent="1" source="rKoa6wGexHbkofGqB5mT-32" target="rKoa6wGexHbkofGqB5mT-41">
          <mxGeometry relative="1" as="geometry" />
        </mxCell>
        <mxCell id="rKoa6wGexHbkofGqB5mT-73" style="edgeStyle=none;rounded=0;orthogonalLoop=1;jettySize=auto;html=1;exitX=1;exitY=0.5;exitDx=0;exitDy=0;entryX=0;entryY=0.5;entryDx=0;entryDy=0;strokeWidth=1;" edge="1" parent="1" source="rKoa6wGexHbkofGqB5mT-32" target="rKoa6wGexHbkofGqB5mT-42">
          <mxGeometry relative="1" as="geometry" />
        </mxCell>
        <mxCell id="rKoa6wGexHbkofGqB5mT-32" value="&lt;font style=&quot;font-size: 18px;&quot;&gt;MU&lt;/font&gt;&lt;div&gt;(memory modules)&lt;/div&gt;" style="rounded=0;whiteSpace=wrap;html=1;fillColor=#fff2cc;strokeColor=#d6b656;" vertex="1" parent="1">
          <mxGeometry x="-190" y="240" width="140" height="80" as="geometry" />
        </mxCell>
        <mxCell id="rKoa6wGexHbkofGqB5mT-74" style="edgeStyle=none;rounded=0;orthogonalLoop=1;jettySize=auto;html=1;exitX=1;exitY=0.5;exitDx=0;exitDy=0;entryX=0;entryY=0.5;entryDx=0;entryDy=0;strokeWidth=1;" edge="1" parent="1" source="rKoa6wGexHbkofGqB5mT-34" target="rKoa6wGexHbkofGqB5mT-40">
          <mxGeometry relative="1" as="geometry" />
        </mxCell>
        <mxCell id="rKoa6wGexHbkofGqB5mT-75" style="edgeStyle=none;rounded=0;orthogonalLoop=1;jettySize=auto;html=1;exitX=1;exitY=0.5;exitDx=0;exitDy=0;entryX=0;entryY=0.5;entryDx=0;entryDy=0;strokeWidth=1;" edge="1" parent="1" source="rKoa6wGexHbkofGqB5mT-34" target="rKoa6wGexHbkofGqB5mT-41">
          <mxGeometry relative="1" as="geometry" />
        </mxCell>
        <mxCell id="rKoa6wGexHbkofGqB5mT-76" style="edgeStyle=none;rounded=0;orthogonalLoop=1;jettySize=auto;html=1;exitX=1;exitY=0.5;exitDx=0;exitDy=0;entryX=0;entryY=0.5;entryDx=0;entryDy=0;strokeWidth=1;" edge="1" parent="1" source="rKoa6wGexHbkofGqB5mT-34" target="rKoa6wGexHbkofGqB5mT-42">
          <mxGeometry relative="1" as="geometry" />
        </mxCell>
        <mxCell id="rKoa6wGexHbkofGqB5mT-34" value="&lt;font style=&quot;font-size: 18px;&quot;&gt;Murata Manufacturing&lt;/font&gt;&lt;div&gt;(ceramic capacitors)&lt;/div&gt;" style="rounded=0;whiteSpace=wrap;html=1;fillColor=#fff2cc;strokeColor=#d6b656;" vertex="1" parent="1">
          <mxGeometry x="-190" y="330" width="140" height="80" as="geometry" />
        </mxCell>
        <mxCell id="rKoa6wGexHbkofGqB5mT-77" style="edgeStyle=none;rounded=0;orthogonalLoop=1;jettySize=auto;html=1;exitX=1;exitY=0.5;exitDx=0;exitDy=0;entryX=0;entryY=0.5;entryDx=0;entryDy=0;strokeWidth=1;" edge="1" parent="1" source="rKoa6wGexHbkofGqB5mT-35" target="rKoa6wGexHbkofGqB5mT-40">
          <mxGeometry relative="1" as="geometry" />
        </mxCell>
        <mxCell id="rKoa6wGexHbkofGqB5mT-78" style="edgeStyle=none;rounded=0;orthogonalLoop=1;jettySize=auto;html=1;exitX=1;exitY=0.5;exitDx=0;exitDy=0;entryX=0;entryY=0.5;entryDx=0;entryDy=0;strokeWidth=1;" edge="1" parent="1" source="rKoa6wGexHbkofGqB5mT-35" target="rKoa6wGexHbkofGqB5mT-41">
          <mxGeometry relative="1" as="geometry" />
        </mxCell>
        <mxCell id="rKoa6wGexHbkofGqB5mT-79" style="edgeStyle=none;rounded=0;orthogonalLoop=1;jettySize=auto;html=1;exitX=1;exitY=0.5;exitDx=0;exitDy=0;entryX=0;entryY=0.5;entryDx=0;entryDy=0;strokeWidth=1;" edge="1" parent="1" source="rKoa6wGexHbkofGqB5mT-35" target="rKoa6wGexHbkofGqB5mT-42">
          <mxGeometry relative="1" as="geometry" />
        </mxCell>
        <mxCell id="rKoa6wGexHbkofGqB5mT-35" value="&lt;div&gt;&lt;font style=&quot;font-size: 18px;&quot;&gt;Nidec&amp;nbsp;&lt;/font&gt;&lt;/div&gt;&lt;div&gt;(taptic engine)&lt;/div&gt;" style="rounded=0;whiteSpace=wrap;html=1;fillColor=#fff2cc;strokeColor=#d6b656;" vertex="1" parent="1">
          <mxGeometry x="-190" y="420" width="140" height="80" as="geometry" />
        </mxCell>
        <mxCell id="rKoa6wGexHbkofGqB5mT-80" style="edgeStyle=none;rounded=0;orthogonalLoop=1;jettySize=auto;html=1;exitX=1;exitY=0.5;exitDx=0;exitDy=0;entryX=0;entryY=0.5;entryDx=0;entryDy=0;strokeWidth=1;" edge="1" parent="1" source="rKoa6wGexHbkofGqB5mT-36" target="rKoa6wGexHbkofGqB5mT-40">
          <mxGeometry relative="1" as="geometry">
            <mxPoint x="110" y="280" as="targetPoint" />
          </mxGeometry>
        </mxCell>
        <mxCell id="rKoa6wGexHbkofGqB5mT-81" style="edgeStyle=none;rounded=0;orthogonalLoop=1;jettySize=auto;html=1;exitX=1;exitY=0.5;exitDx=0;exitDy=0;strokeWidth=1;" edge="1" parent="1" source="rKoa6wGexHbkofGqB5mT-36">
          <mxGeometry relative="1" as="geometry">
            <mxPoint x="110" y="460" as="targetPoint" />
          </mxGeometry>
        </mxCell>
        <mxCell id="rKoa6wGexHbkofGqB5mT-82" style="edgeStyle=none;rounded=0;orthogonalLoop=1;jettySize=auto;html=1;exitX=1;exitY=0.5;exitDx=0;exitDy=0;entryX=0;entryY=0.5;entryDx=0;entryDy=0;strokeWidth=1;" edge="1" parent="1" source="rKoa6wGexHbkofGqB5mT-36" target="rKoa6wGexHbkofGqB5mT-42">
          <mxGeometry relative="1" as="geometry" />
        </mxCell>
        <mxCell id="rKoa6wGexHbkofGqB5mT-36" value="&lt;font style=&quot;font-size: 18px;&quot;&gt;QCOM&lt;/font&gt;&lt;div&gt;(multiple eletronic components)&lt;/div&gt;" style="rounded=0;whiteSpace=wrap;html=1;fillColor=#fff2cc;strokeColor=#d6b656;" vertex="1" parent="1">
          <mxGeometry x="-190" y="510" width="140" height="80" as="geometry" />
        </mxCell>
        <mxCell id="rKoa6wGexHbkofGqB5mT-83" style="edgeStyle=none;rounded=0;orthogonalLoop=1;jettySize=auto;html=1;exitX=1;exitY=0.5;exitDx=0;exitDy=0;entryX=0;entryY=0.5;entryDx=0;entryDy=0;strokeWidth=1;" edge="1" parent="1" source="rKoa6wGexHbkofGqB5mT-37" target="rKoa6wGexHbkofGqB5mT-40">
          <mxGeometry relative="1" as="geometry" />
        </mxCell>
        <mxCell id="rKoa6wGexHbkofGqB5mT-84" style="edgeStyle=none;rounded=0;orthogonalLoop=1;jettySize=auto;html=1;exitX=1;exitY=0.5;exitDx=0;exitDy=0;entryX=0;entryY=0.5;entryDx=0;entryDy=0;strokeWidth=1;" edge="1" parent="1" source="rKoa6wGexHbkofGqB5mT-37" target="rKoa6wGexHbkofGqB5mT-41">
          <mxGeometry relative="1" as="geometry" />
        </mxCell>
        <mxCell id="rKoa6wGexHbkofGqB5mT-85" style="edgeStyle=none;rounded=0;orthogonalLoop=1;jettySize=auto;html=1;exitX=1;exitY=0.5;exitDx=0;exitDy=0;entryX=0;entryY=0.5;entryDx=0;entryDy=0;strokeWidth=1;" edge="1" parent="1" source="rKoa6wGexHbkofGqB5mT-37" target="rKoa6wGexHbkofGqB5mT-42">
          <mxGeometry relative="1" as="geometry" />
        </mxCell>
        <mxCell id="rKoa6wGexHbkofGqB5mT-37" value="&lt;div&gt;&lt;font style=&quot;font-size: 18px;&quot;&gt;Samsung&lt;/font&gt;&lt;/div&gt;&lt;div&gt;(multiple eletronic components)&lt;/div&gt;" style="rounded=0;whiteSpace=wrap;html=1;fillColor=#fff2cc;strokeColor=#d6b656;" vertex="1" parent="1">
          <mxGeometry x="-190" y="600" width="140" height="80" as="geometry" />
        </mxCell>
        <mxCell id="rKoa6wGexHbkofGqB5mT-86" style="edgeStyle=none;rounded=0;orthogonalLoop=1;jettySize=auto;html=1;exitX=1;exitY=0.5;exitDx=0;exitDy=0;entryX=0;entryY=0.5;entryDx=0;entryDy=0;strokeWidth=1;" edge="1" parent="1" source="rKoa6wGexHbkofGqB5mT-38" target="rKoa6wGexHbkofGqB5mT-40">
          <mxGeometry relative="1" as="geometry">
            <mxPoint x="110" y="280" as="targetPoint" />
          </mxGeometry>
        </mxCell>
        <mxCell id="rKoa6wGexHbkofGqB5mT-87" style="edgeStyle=none;rounded=0;orthogonalLoop=1;jettySize=auto;html=1;exitX=1;exitY=0.5;exitDx=0;exitDy=0;strokeWidth=1;" edge="1" parent="1" source="rKoa6wGexHbkofGqB5mT-38">
          <mxGeometry relative="1" as="geometry">
            <mxPoint x="110" y="460" as="targetPoint" />
          </mxGeometry>
        </mxCell>
        <mxCell id="rKoa6wGexHbkofGqB5mT-88" style="edgeStyle=none;rounded=0;orthogonalLoop=1;jettySize=auto;html=1;exitX=1;exitY=0.5;exitDx=0;exitDy=0;entryX=0;entryY=0.5;entryDx=0;entryDy=0;strokeWidth=1;" edge="1" parent="1" source="rKoa6wGexHbkofGqB5mT-38" target="rKoa6wGexHbkofGqB5mT-42">
          <mxGeometry relative="1" as="geometry" />
        </mxCell>
        <mxCell id="rKoa6wGexHbkofGqB5mT-38" value="&lt;div&gt;&lt;span style=&quot;background-color: initial;&quot;&gt;&lt;font style=&quot;font-size: 18px;&quot;&gt;STM&lt;/font&gt;&lt;/span&gt;&lt;/div&gt;&lt;div&gt;&lt;span style=&quot;background-color: initial;&quot;&gt;(gyroscope and accelerometer)&lt;/span&gt;&lt;/div&gt;" style="rounded=0;whiteSpace=wrap;html=1;fillColor=#fff2cc;strokeColor=#d6b656;" vertex="1" parent="1">
          <mxGeometry x="-190" y="690" width="140" height="80" as="geometry" />
        </mxCell>
        <mxCell id="rKoa6wGexHbkofGqB5mT-89" style="edgeStyle=none;rounded=0;orthogonalLoop=1;jettySize=auto;html=1;exitX=1;exitY=0.5;exitDx=0;exitDy=0;entryX=0;entryY=0.5;entryDx=0;entryDy=0;strokeWidth=1;" edge="1" parent="1" source="rKoa6wGexHbkofGqB5mT-39" target="rKoa6wGexHbkofGqB5mT-40">
          <mxGeometry relative="1" as="geometry">
            <mxPoint x="110" y="280" as="targetPoint" />
          </mxGeometry>
        </mxCell>
        <mxCell id="rKoa6wGexHbkofGqB5mT-90" style="edgeStyle=none;rounded=0;orthogonalLoop=1;jettySize=auto;html=1;exitX=1;exitY=0.5;exitDx=0;exitDy=0;entryX=0;entryY=0.5;entryDx=0;entryDy=0;strokeWidth=1;" edge="1" parent="1" source="rKoa6wGexHbkofGqB5mT-39" target="rKoa6wGexHbkofGqB5mT-41">
          <mxGeometry relative="1" as="geometry" />
        </mxCell>
        <mxCell id="rKoa6wGexHbkofGqB5mT-91" style="edgeStyle=none;rounded=0;orthogonalLoop=1;jettySize=auto;html=1;exitX=1;exitY=0.5;exitDx=0;exitDy=0;entryX=0;entryY=0.5;entryDx=0;entryDy=0;strokeWidth=1;" edge="1" parent="1" source="rKoa6wGexHbkofGqB5mT-39" target="rKoa6wGexHbkofGqB5mT-42">
          <mxGeometry relative="1" as="geometry" />
        </mxCell>
        <mxCell id="rKoa6wGexHbkofGqB5mT-39" value="&lt;div&gt;&lt;span style=&quot;background-color: initial;&quot;&gt;&lt;font style=&quot;font-size: 18px;&quot;&gt;TXN&lt;/font&gt;&lt;/span&gt;&lt;/div&gt;&lt;div&gt;&lt;span style=&quot;background-color: initial;&quot;&gt;(amplification system, control device, etc.)&lt;/span&gt;&lt;/div&gt;" style="rounded=0;whiteSpace=wrap;html=1;fillColor=#fff2cc;strokeColor=#d6b656;" vertex="1" parent="1">
          <mxGeometry x="-190" y="780" width="140" height="80" as="geometry" />
        </mxCell>
        <mxCell id="rKoa6wGexHbkofGqB5mT-94" style="edgeStyle=none;rounded=0;orthogonalLoop=1;jettySize=auto;html=1;exitX=1;exitY=0.5;exitDx=0;exitDy=0;entryX=0;entryY=0.5;entryDx=0;entryDy=0;" edge="1" parent="1" source="rKoa6wGexHbkofGqB5mT-40" target="rKoa6wGexHbkofGqB5mT-93">
          <mxGeometry relative="1" as="geometry" />
        </mxCell>
        <mxCell id="rKoa6wGexHbkofGqB5mT-99" style="edgeStyle=none;rounded=0;orthogonalLoop=1;jettySize=auto;html=1;exitX=1;exitY=0.5;exitDx=0;exitDy=0;entryX=0;entryY=0.5;entryDx=0;entryDy=0;" edge="1" parent="1" source="rKoa6wGexHbkofGqB5mT-40" target="rKoa6wGexHbkofGqB5mT-92">
          <mxGeometry relative="1" as="geometry" />
        </mxCell>
        <mxCell id="rKoa6wGexHbkofGqB5mT-40" value="&lt;font style=&quot;font-size: 18px;&quot;&gt;Foxconn&lt;/font&gt;" style="rounded=0;whiteSpace=wrap;html=1;fillColor=#e1d5e7;strokeColor=#9673a6;" vertex="1" parent="1">
          <mxGeometry x="110" y="330" width="140" height="80" as="geometry" />
        </mxCell>
        <mxCell id="rKoa6wGexHbkofGqB5mT-96" style="edgeStyle=none;rounded=0;orthogonalLoop=1;jettySize=auto;html=1;exitX=1;exitY=0.5;exitDx=0;exitDy=0;entryX=0;entryY=0.5;entryDx=0;entryDy=0;" edge="1" parent="1" source="rKoa6wGexHbkofGqB5mT-41" target="rKoa6wGexHbkofGqB5mT-93">
          <mxGeometry relative="1" as="geometry" />
        </mxCell>
        <mxCell id="rKoa6wGexHbkofGqB5mT-97" style="edgeStyle=none;rounded=0;orthogonalLoop=1;jettySize=auto;html=1;exitX=1;exitY=0.5;exitDx=0;exitDy=0;entryX=0;entryY=0.5;entryDx=0;entryDy=0;" edge="1" parent="1" source="rKoa6wGexHbkofGqB5mT-41" target="rKoa6wGexHbkofGqB5mT-92">
          <mxGeometry relative="1" as="geometry" />
        </mxCell>
        <mxCell id="rKoa6wGexHbkofGqB5mT-41" value="&lt;font style=&quot;font-size: 18px;&quot;&gt;Compal&lt;/font&gt;" style="rounded=0;whiteSpace=wrap;html=1;fillColor=#e1d5e7;strokeColor=#9673a6;" vertex="1" parent="1">
          <mxGeometry x="110" y="420" width="140" height="80" as="geometry" />
        </mxCell>
        <mxCell id="rKoa6wGexHbkofGqB5mT-95" style="edgeStyle=none;rounded=0;orthogonalLoop=1;jettySize=auto;html=1;exitX=1;exitY=0.5;exitDx=0;exitDy=0;entryX=0;entryY=0.5;entryDx=0;entryDy=0;" edge="1" parent="1" source="rKoa6wGexHbkofGqB5mT-42" target="rKoa6wGexHbkofGqB5mT-92">
          <mxGeometry relative="1" as="geometry" />
        </mxCell>
        <mxCell id="rKoa6wGexHbkofGqB5mT-98" style="edgeStyle=none;rounded=0;orthogonalLoop=1;jettySize=auto;html=1;exitX=1;exitY=0.5;exitDx=0;exitDy=0;" edge="1" parent="1" source="rKoa6wGexHbkofGqB5mT-42">
          <mxGeometry relative="1" as="geometry">
            <mxPoint x="300" y="370" as="targetPoint" />
          </mxGeometry>
        </mxCell>
        <mxCell id="rKoa6wGexHbkofGqB5mT-42" value="&lt;font style=&quot;font-size: 18px;&quot;&gt;Pegatron&lt;/font&gt;" style="rounded=0;whiteSpace=wrap;html=1;fillColor=#e1d5e7;strokeColor=#9673a6;" vertex="1" parent="1">
          <mxGeometry x="110" y="510" width="140" height="80" as="geometry" />
        </mxCell>
        <mxCell id="rKoa6wGexHbkofGqB5mT-117" style="edgeStyle=none;rounded=0;orthogonalLoop=1;jettySize=auto;html=1;exitX=1;exitY=0.5;exitDx=0;exitDy=0;entryX=0;entryY=0.5;entryDx=0;entryDy=0;" edge="1" parent="1" source="rKoa6wGexHbkofGqB5mT-92" target="rKoa6wGexHbkofGqB5mT-109">
          <mxGeometry relative="1" as="geometry" />
        </mxCell>
        <mxCell id="rKoa6wGexHbkofGqB5mT-92" value="&lt;font style=&quot;font-size: 18px;&quot;&gt;Other Distribuitions Center&lt;/font&gt;&lt;div&gt;(via UPS/FEDEX)&lt;/div&gt;" style="rounded=0;whiteSpace=wrap;html=1;fillColor=#d5e8d4;strokeColor=#82b366;" vertex="1" parent="1">
          <mxGeometry x="300" y="500" width="140" height="100" as="geometry" />
        </mxCell>
        <mxCell id="rKoa6wGexHbkofGqB5mT-111" style="edgeStyle=none;rounded=0;orthogonalLoop=1;jettySize=auto;html=1;exitX=1;exitY=0.5;exitDx=0;exitDy=0;entryX=0;entryY=0.5;entryDx=0;entryDy=0;" edge="1" parent="1" source="rKoa6wGexHbkofGqB5mT-93" target="rKoa6wGexHbkofGqB5mT-101">
          <mxGeometry relative="1" as="geometry" />
        </mxCell>
        <mxCell id="rKoa6wGexHbkofGqB5mT-112" style="edgeStyle=none;rounded=0;orthogonalLoop=1;jettySize=auto;html=1;exitX=1;exitY=0.5;exitDx=0;exitDy=0;entryX=0;entryY=0.5;entryDx=0;entryDy=0;" edge="1" parent="1" source="rKoa6wGexHbkofGqB5mT-93" target="rKoa6wGexHbkofGqB5mT-108">
          <mxGeometry relative="1" as="geometry" />
        </mxCell>
        <mxCell id="rKoa6wGexHbkofGqB5mT-113" style="edgeStyle=none;rounded=0;orthogonalLoop=1;jettySize=auto;html=1;exitX=1;exitY=0.5;exitDx=0;exitDy=0;entryX=0;entryY=0.5;entryDx=0;entryDy=0;" edge="1" parent="1" source="rKoa6wGexHbkofGqB5mT-93" target="rKoa6wGexHbkofGqB5mT-104">
          <mxGeometry relative="1" as="geometry" />
        </mxCell>
        <mxCell id="rKoa6wGexHbkofGqB5mT-93" value="&lt;font style=&quot;font-size: 18px;&quot;&gt;US Apple Warehouse&lt;/font&gt;" style="rounded=0;whiteSpace=wrap;html=1;fillColor=#d5e8d4;strokeColor=#82b366;" vertex="1" parent="1">
          <mxGeometry x="300" y="270" width="140" height="200" as="geometry" />
        </mxCell>
        <mxCell id="rKoa6wGexHbkofGqB5mT-101" value="&lt;font style=&quot;font-size: 18px;&quot;&gt;Direct Sales Force&lt;/font&gt;" style="rounded=0;whiteSpace=wrap;html=1;fillColor=#dae8fc;strokeColor=#6c8ebf;" vertex="1" parent="1">
          <mxGeometry x="480" y="50" width="140" height="80" as="geometry" />
        </mxCell>
        <mxCell id="rKoa6wGexHbkofGqB5mT-104" value="&lt;font style=&quot;font-size: 18px;&quot;&gt;Retail Stores&lt;/font&gt;" style="rounded=0;whiteSpace=wrap;html=1;fillColor=#dae8fc;strokeColor=#6c8ebf;" vertex="1" parent="1">
          <mxGeometry x="480" y="390" width="140" height="80" as="geometry" />
        </mxCell>
        <mxCell id="rKoa6wGexHbkofGqB5mT-107" value="&lt;font style=&quot;font-size: 18px;&quot;&gt;Customers&lt;/font&gt;" style="rounded=0;whiteSpace=wrap;html=1;fillColor=#76608a;strokeColor=#432D57;fontColor=#ffffff;" vertex="1" parent="1">
          <mxGeometry x="710" y="50" width="210" height="810" as="geometry" />
        </mxCell>
        <mxCell id="rKoa6wGexHbkofGqB5mT-125" style="edgeStyle=none;rounded=0;orthogonalLoop=1;jettySize=auto;html=1;exitX=1;exitY=0.5;exitDx=0;exitDy=0;entryX=0;entryY=0.25;entryDx=0;entryDy=0;" edge="1" parent="1" source="rKoa6wGexHbkofGqB5mT-108" target="rKoa6wGexHbkofGqB5mT-107">
          <mxGeometry relative="1" as="geometry" />
        </mxCell>
        <mxCell id="rKoa6wGexHbkofGqB5mT-108" value="&lt;font style=&quot;font-size: 18px;&quot;&gt;Wholesalers&lt;/font&gt;" style="rounded=0;whiteSpace=wrap;html=1;fillColor=#dae8fc;strokeColor=#6c8ebf;" vertex="1" parent="1">
          <mxGeometry x="480" y="150" width="140" height="205" as="geometry" />
        </mxCell>
        <mxCell id="rKoa6wGexHbkofGqB5mT-109" value="&lt;font style=&quot;font-size: 18px;&quot;&gt;Online Sales&lt;/font&gt;" style="rounded=0;whiteSpace=wrap;html=1;fillColor=#dae8fc;strokeColor=#6c8ebf;" vertex="1" parent="1">
          <mxGeometry x="480" y="500" width="140" height="240" as="geometry" />
        </mxCell>
        <mxCell id="rKoa6wGexHbkofGqB5mT-123" style="edgeStyle=none;rounded=0;orthogonalLoop=1;jettySize=auto;html=1;exitX=1;exitY=0.5;exitDx=0;exitDy=0;entryX=0.048;entryY=0.703;entryDx=0;entryDy=0;entryPerimeter=0;" edge="1" parent="1" source="rKoa6wGexHbkofGqB5mT-109" target="rKoa6wGexHbkofGqB5mT-107">
          <mxGeometry relative="1" as="geometry" />
        </mxCell>
        <mxCell id="rKoa6wGexHbkofGqB5mT-124" style="edgeStyle=none;rounded=0;orthogonalLoop=1;jettySize=auto;html=1;exitX=1;exitY=0.5;exitDx=0;exitDy=0;entryX=0.005;entryY=0.468;entryDx=0;entryDy=0;entryPerimeter=0;" edge="1" parent="1" source="rKoa6wGexHbkofGqB5mT-104" target="rKoa6wGexHbkofGqB5mT-107">
          <mxGeometry relative="1" as="geometry" />
        </mxCell>
        <mxCell id="rKoa6wGexHbkofGqB5mT-126" style="edgeStyle=none;rounded=0;orthogonalLoop=1;jettySize=auto;html=1;exitX=1;exitY=0.5;exitDx=0;exitDy=0;entryX=0.03;entryY=0.049;entryDx=0;entryDy=0;entryPerimeter=0;" edge="1" parent="1" source="rKoa6wGexHbkofGqB5mT-101" target="rKoa6wGexHbkofGqB5mT-107">
          <mxGeometry relative="1" as="geometry" />
        </mxCell>
      </root>
    </mxGraphModel>
  </diagram>
</mxfile>
